<svg xmlns="http://www.w3.org/2000/svg"  viewBox="0 0 50 50" width="50px" height="50px"><path d="M 29 3 C 28.061905 3 27.178885 3.3684367 26.513672 3.984375 C 25.848458 4.6003133 25.373352 5.4287146 25.011719 6.4023438 C 24.3675 8.1367787 24.083109 10.399317 24.025391 13.035156 C 19.22691 13.186726 14.817855 14.429511 11.279297 16.480469 C 10.213343 15.476702 8.8590586 14.96875 7.5 14.96875 C 6.0881086 14.96875 4.677074 15.510426 3.59375 16.59375 C 1.427102 18.760398 1.427102 22.239602 3.59375 24.40625 L 3.828125 24.642578 C 3.2945389 26.023724 3 27.484154 3 29 C 3 33.52751 5.5723113 37.573339 9.5683594 40.425781 C 13.564407 43.278223 19.007471 45 25 45 C 30.992529 45 36.435593 43.278223 40.431641 40.425781 C 44.427689 37.573339 47 33.52751 47 29 C 47 27.484154 46.705461 26.023724 46.171875 24.642578 L 46.40625 24.40625 C 48.572898 22.239602 48.572898 18.760398 46.40625 16.59375 C 45.322926 15.510426 43.911891 14.96875 42.5 14.96875 C 41.140942 14.96875 39.786657 15.476702 38.720703 16.480469 C 35.194656 14.436763 30.804137 13.195935 26.025391 13.037109 C 26.087868 10.549487 26.376169 8.4722116 26.886719 7.0976562 C 27.175085 6.3212854 27.52576 5.7746867 27.873047 5.453125 C 28.220333 5.1315633 28.538095 5 29 5 C 29.461905 5 29.693276 5.118116 30.039062 5.4003906 C 30.38485 5.6826653 30.782323 6.1575006 31.308594 6.6972656 C 32.238042 7.6505462 33.817536 8.5901879 36.167969 8.8261719 C 36.579148 11.167961 38.546917 13 41 13 C 43.745455 13 46 10.745455 46 8 C 46 5.2545455 43.745455 3 41 3 C 38.658898 3 36.766093 4.6722476 36.232422 6.8574219 C 34.475227 6.6794342 33.51073 6.0929865 32.740234 5.3027344 C 32.291505 4.8424994 31.877651 4.3173347 31.304688 3.8496094 C 30.731724 3.381884 29.938095 3 29 3 z M 41 5 C 42.654545 5 44 6.3454545 44 8 C 44 9.6545455 42.654545 11 41 11 C 39.345455 11 38 9.6545455 38 8 C 38 6.3454545 39.345455 5 41 5 z M 25 15 C 30.607471 15 35.665579 16.628614 39.269531 19.201172 C 42.873483 21.77373 45 25.22751 45 29 C 45 32.77249 42.873483 36.22627 39.269531 38.798828 C 35.665579 41.371386 30.607471 43 25 43 C 19.392529 43 14.334421 41.371386 10.730469 38.798828 C 7.1265167 36.22627 5 32.77249 5 29 C 5 25.22751 7.1265166 21.77373 10.730469 19.201172 C 14.334421 16.628614 19.392529 15 25 15 z M 7.5 16.933594 C 8.2017642 16.933594 8.9003208 17.165446 9.5175781 17.613281 C 7.5301537 19.041643 5.8971574 20.764742 4.7636719 22.697266 C 3.5976457 21.279302 3.6676043 19.348022 5.0078125 18.007812 C 5.7244885 17.291137 6.6122442 16.933594 7.5 16.933594 z M 42.5 16.933594 C 43.387756 16.933594 44.275511 17.291137 44.992188 18.007812 C 46.332396 19.348022 46.402354 21.279302 45.236328 22.697266 C 44.102843 20.764742 42.469846 19.041643 40.482422 17.613281 C 41.099679 17.165446 41.798236 16.933594 42.5 16.933594 z M 17 22 C 14.790196 22 13 23.790196 13 26 C 13 28.209804 14.790196 30 17 30 C 19.209804 30 21 28.209804 21 26 C 21 23.790196 19.209804 22 17 22 z M 33 22 C 30.790196 22 29 23.790196 29 26 C 29 28.209804 30.790196 30 33 30 C 35.209804 30 37 28.209804 37 26 C 37 23.790196 35.209804 22 33 22 z M 17 24 C 18.190196 24 19 24.809804 19 26 C 19 27.190196 18.190196 28 17 28 C 15.809804 28 15 27.190196 15 26 C 15 24.809804 15.809804 24 17 24 z M 33 24 C 34.190196 24 35 24.809804 35 26 C 35 27.190196 34.190196 28 33 28 C 31.809804 28 31 27.190196 31 26 C 31 24.809804 31.809804 24 33 24 z M 34.125 33.976562 A 1.0001 1.0001 0 0 0 33.28125 34.425781 C 33.28125 34.425781 32.774216 35.168344 31.453125 36.003906 C 30.132034 36.839468 28.060256 37.699219 25 37.699219 C 21.939744 37.699219 19.867966 36.839468 18.546875 36.003906 C 17.225784 35.168344 16.71875 34.425781 16.71875 34.425781 A 1.0001 1.0001 0 0 0 15.865234 33.988281 A 1.0001 1.0001 0 0 0 15.082031 35.574219 C 15.082031 35.574219 15.874607 36.680875 17.478516 37.695312 C 19.082424 38.709752 21.560256 39.699219 25 39.699219 C 28.439744 39.699219 30.917576 38.709751 32.521484 37.695312 C 34.125393 36.680875 34.917969 35.574219 34.917969 35.574219 A 1.0001 1.0001 0 0 0 34.125 33.976562 z"/></svg>