<svg xmlns="http://www.w3.org/2000/svg" xmlns:xlink="http://www.w3.org/1999/xlink" viewBox="0,0,256,256" width="50px" height="50px"><g fill="#000000" fill-rule="nonzero" stroke="none" stroke-width="1" stroke-linecap="butt" stroke-linejoin="miter" stroke-miterlimit="10" stroke-dasharray="" stroke-dashoffset="0" font-family="none" font-weight="none" font-size="none" text-anchor="none" style="mix-blend-mode: normal"><g transform="scale(5.12,5.12)"><path d="M11.30078,2c-5.13623,0 -9.30078,4.16455 -9.30078,9.30078v27.5c0,5.13623 4.16455,9.29883 9.30078,9.29883h27.5c5.13623,0 9.29883,-4.1626 9.29883,-9.29883v-27.51172v-0.01172c-0.1114,-5.1242 -4.25068,-9.27734 -9.29883,-9.27734zM11.30078,4h27.5c3.95185,0 7.21022,3.24647 7.29883,7.32227v27.47852c0,4.06377 -3.23506,7.29883 -7.29883,7.29883h-5.80078v-17.09961h4.84766l1.33203,-8h-6.17969v-2c0,-0.55 0.05476,-0.59429 0.25195,-0.7207c0.1972,-0.12641 0.77741,-0.2793 1.74805,-0.2793h4v-6.72852l-0.69336,-0.22266c0,0 -3.17676,-1.04883 -6.30664,-1.04883c-2.9037,0 -5.04221,0.95344 -6.32031,2.63281c-1.27811,1.67937 -1.67969,3.90371 -1.67969,6.36719v2h-3v8h3v17.09961h-12.69922c-4.06377,0 -7.30078,-3.23506 -7.30078,-7.29883v-27.5c0,-4.06377 3.23701,-7.30078 7.30078,-7.30078zM32,12c2.16868,0 4.17455,0.53763 5,0.77344v3.22656h-2c-1.12936,0 -2.05032,0.09711 -2.82812,0.5957c-0.7778,0.49859 -1.17187,1.4543 -1.17187,2.4043v4h5.82031l-0.66797,4h-5.15234v19.09961h-5v-19.09961h-3v-4h3v-4c0,-2.23653 0.39959,-4.01062 1.27148,-5.15625c0.8719,-1.14563 2.23222,-1.84375 4.72852,-1.84375z"></path></g></g></svg>